<?xml version="1.0" encoding="UTF-8"?>
<svg id="Layer_2" data-name="Layer 2" xmlns="http://www.w3.org/2000/svg" viewBox="0 0 435 208">
  <defs>
    <style>
      .cls-1 {
        fill: #9b865d;
      }

      .cls-2 {
        fill: #435176;
      }
    </style>
  </defs>
  <g id="Layer_1-2" data-name="Layer 1">
    <g>
      <path class="cls-2" d="M167,65.48c-.17.81-.17,1.38-.17,1.38h-.04s-.02-.57-.22-1.38l-1.97-8.22h-2.59l-2.02,8.22c-.2.81-.22,1.38-.22,1.38h-.04s0-.57-.17-1.38l-1.65-8.22h-3.38l3.2,13.14h3.62l1.66-6.64c.2-.85.26-1.54.26-1.54h.04s.05.7.26,1.54l1.65,6.64h3.59l3.33-13.14h-3.33l-1.8,8.22Z"/>
      <polygon class="cls-2" points="276.69 67.65 276.69 65.17 280.7 65.17 280.7 62.41 276.69 62.41 276.69 60.02 281.71 60.02 281.71 57.26 273.47 57.26 273.47 70.41 281.97 70.41 281.97 67.65 276.69 67.65"/>
      <path class="cls-2" d="M220.55,118.65c0-.74.74-1.03,1.4-1.03,1.58,0,2.91,1.16,2.91,1.16l1.36-2.63s-1.4-1.49-4.23-1.49c-2.61,0-4.65,1.6-4.65,4.03,0,4.04,5.92,3.99,5.92,5.55,0,.79-.72,1.05-1.38,1.05-1.65,0-3.14-1.36-3.14-1.36l-1.69,2.45s1.71,1.88,4.8,1.88,4.63-1.89,4.63-4.08c0-4.15-5.92-3.86-5.92-5.51Z"/>
      <path class="cls-1" d="M203.96,72.22c-1.2-2.54-1.87-5.38-1.87-8.39h-23.59c-.43,0-.52.61-.1.73l16.24,4.86c.92,4.44,2.9,8.5,5.67,11.9l-3.45,6.92c-.17.34.19.7.53.53l6.92-3.45c3.39,2.77,7.45,4.75,11.89,5.67l-2.78-9.32c-4.15-1.95-7.51-5.3-9.46-9.46Z"/>
      <path class="cls-1" d="M203.96,55.46c1.95-4.15,5.3-7.51,9.46-9.46,2.54-1.2,5.38-1.87,8.39-1.87v-23.59c0-.43-.61-.52-.73-.1l-4.86,16.24c-4.44.92-8.5,2.9-11.9,5.67l-6.92-3.45c-.34-.17-.7.19-.53.53l3.45,6.92c-2.77,3.39-4.75,7.44-5.67,11.89l9.32-2.78Z"/>
      <path class="cls-1" d="M239.63,72.22c-1.95,4.15-5.31,7.51-9.46,9.47-2.54,1.19-5.38,1.86-8.38,1.86v23.59c0,.43.6.52.73.1l4.85-16.24h.01c4.44-.92,8.5-2.9,11.89-5.67,0,0,0,0,0,0l6.92,3.45c.34.17.7-.19.53-.53l-3.45-6.92c2.77-3.39,4.75-7.44,5.67-11.88l-9.32,2.78Z"/>
      <path class="cls-1" d="M265.2,63.11l-16.25-4.86c-.92-4.44-2.9-8.49-5.67-11.89l3.45-6.92c.17-.34-.19-.7-.53-.53l-6.92,3.45c-3.08-2.52-6.7-4.38-10.66-5.39l1.59,9.05c4.13,1.95,7.49,5.3,9.43,9.45,1.2,2.54,1.87,5.38,1.87,8.38h23.59c.43,0,.52-.61.11-.73Z"/>
      <polygon class="cls-1" points="225.63 63.84 221.8 50.83 218.16 63.84 221.8 63.84 221.75 76.62 225.63 63.84"/>
      <path class="cls-1" d="M219.56,7.02c0-.83-.15-2.24-.15-2.24h.04s.59,1.38,1.1,2.24l3.66,6.12h3.23V0h-3.22v6.14c0,.83.15,2.24.15,2.24h-.04s-.59-1.38-1.1-2.24l-3.64-6.14h-3.25v13.14h3.22v-6.12Z"/>
      <g>
        <path class="cls-2" d="M0,164.55v-.81h7.07v.81c-1.76.24-1.91.62-1.4,2.39l3.26,11.04,3.13-11.02c.52-1.85.37-2.16-1.39-2.41v-.81h6.79v.81c-1.72.24-1.85.56-1.33,2.38l3.21,11.04,3.13-10.88c.55-1.91.4-2.29-1.39-2.54v-.81h5.24v.81c-1.43.19-1.81.53-2.47,2.61l-4.39,13.74h-2.25l-4.01-13.33-4.15,13.33h-2.22l-4.45-13.98c-.59-1.89-1.03-2.2-2.38-2.38Z"/>
        <path class="cls-2" d="M49.17,180.1v.81h-7.13v-.81c1.75-.23,2.01-.64,1.4-2.4l-.93-2.69h-5.87l-.86,2.52c-.64,1.91-.44,2.32,1.38,2.57v.81h-5.27v-.81c1.44-.2,1.77-.55,2.52-2.63l5.04-13.73h2.21l5.08,13.98c.68,1.83,1.05,2.19,2.43,2.38ZM42.14,173.98l-2.59-7.5-2.56,7.5h5.15Z"/>
        <path class="cls-2" d="M58.55,180.91v-.81c1.66-.2,1.89-.44,1.89-1.5v-12.55c0-1.06-.21-1.3-1.89-1.5v-.81h7.07v.81c-1.8.2-2.05.49-2.05,1.63v13.79l2.37-.08c2.86-.12,3.89-.7,4.66-4.2h.76l-.18,5.22h-12.64Z"/>
        <path class="cls-2" d="M93.89,168.11h-.76c-.52-2.72-1.4-3.25-4.53-3.39l-.68-.04v13.75c0,1.15.25,1.46,2.06,1.66v.81h-7.24v-.81c1.8-.2,2.04-.51,2.04-1.66v-13.75l-.67.04c-3.13.14-4.02.67-4.53,3.39h-.76l.15-4.36h14.75l.15,4.36Z"/>
        <path class="cls-2" d="M117.1,168.11h-.76c-.62-2.63-1.52-3.21-4.48-3.33l-2.87-.1v6.97l3.13-.02c1.07-.02,1.35-.44,1.76-2.4h.71v5.8h-.71c-.36-1.94-.65-2.39-1.76-2.4l-3.13-.04v7.38l3.06-.11c3.39-.13,4.23-.61,4.87-3.83h.76l-.18,4.87h-13.54v-.81c1.68-.2,1.89-.44,1.89-1.5v-12.55c0-1.06-.21-1.3-1.89-1.5v-.81h12.99l.14,4.36Z"/>
        <path class="cls-2" d="M138.56,172.46l2.32,4.46c1.4,2.6,1.94,3.04,2.65,3.23v.76h-3.84l-3.97-7.69h-2.65v5.44c0,1.01.24,1.22,1.8,1.44v.81h-6.82v-.81c1.68-.21,1.89-.45,1.89-1.5v-12.55c0-1.07-.21-1.31-1.89-1.5v-.81h7.1c4.58,0,6.88,1.77,6.88,4.61,0,2.12-1.47,3.61-3.46,4.1ZM134.36,164.73l-1.3-.05v7.61l1.57-.06c2.68-.07,4.22-1.3,4.22-3.65s-1.39-3.74-4.49-3.85Z"/>
        <path class="cls-2" d="M181.01,168.11h-.76c-.62-2.63-1.52-3.21-4.48-3.33l-2.87-.1v6.97l3.13-.02c1.07-.02,1.35-.44,1.76-2.4h.71v5.8h-.71c-.36-1.94-.65-2.39-1.76-2.4l-3.13-.04v7.38l3.06-.11c3.39-.13,4.23-.61,4.87-3.83h.76l-.18,4.87h-13.54v-.81c1.68-.2,1.89-.44,1.89-1.5v-12.55c0-1.06-.21-1.3-1.89-1.5v-.81h12.99l.14,4.36Z"/>
        <path class="cls-2" d="M207.11,179.83l-.14-3.93h.75c.63,2.82,2.58,4.18,4.91,4.18,2.14,0,3.51-1.19,3.51-2.94s-1.05-2.66-3.34-3.46l-1.22-.42c-2.9-1-4.46-2.59-4.46-4.99,0-2.96,2.45-4.85,6.24-4.85,2.08,0,3.79.55,4.72,1.24l.13,3.8h-.76c-.53-2.62-2.03-3.89-4.14-3.89s-3.38,1.09-3.38,2.72,1.16,2.53,3.38,3.29l1.21.42c2.98,1.03,4.43,2.65,4.43,5.12,0,3.13-2.82,5.1-6.35,5.1-2.39,0-4.41-.63-5.49-1.4Z"/>
        <path class="cls-2" d="M240.06,177.58l4.67-13.85h5.41v.82c-1.63.19-1.89.44-1.87,1.5l.33,12.55c.04,1.07.24,1.31,1.89,1.5v.81h-6.8v-.81c1.58-.19,1.82-.42,1.8-1.46l-.32-12.59-3.97,10.85-1.43,4.01h-1.55l-5.67-14.98-.05,12.15c-.01,1.49.18,1.81,1.83,2.02v.81h-5.09v-.81c1.62-.21,1.82-.52,1.88-1.97l.34-11.77c.04-1.26-.25-1.59-1.78-1.81v-.81h5.23l5.14,13.84Z"/>
        <path class="cls-2" d="M267.43,180.1v.81h-6.92v-.81c1.68-.2,1.89-.44,1.89-1.5v-12.55c0-1.06-.21-1.3-1.89-1.5v-.81h6.92v.81c-1.68.2-1.89.44-1.89,1.5v12.55c0,1.06.21,1.3,1.89,1.5Z"/>
        <path class="cls-2" d="M292.57,168.11h-.76c-.52-2.72-1.4-3.25-4.53-3.39l-.68-.04v13.75c0,1.15.25,1.46,2.06,1.66v.81h-7.24v-.81c1.8-.2,2.04-.51,2.04-1.66v-13.75l-.67.04c-3.13.14-4.02.67-4.53,3.39h-.76l.15-4.36h14.75l.15,4.36Z"/>
        <path class="cls-2" d="M309.47,180.1v.81h-6.82v-.81c1.66-.2,1.89-.44,1.89-1.5v-12.55c0-1.06-.21-1.3-1.89-1.5v-.81h6.82v.82c-1.56.19-1.8.42-1.8,1.44v5.62h8.1v-5.64c0-1.02-.2-1.24-1.78-1.44v-.81h6.82v.81c-1.64.2-1.89.43-1.89,1.5v12.55c0,1.06.25,1.3,1.89,1.5v.81h-6.82v-.81c1.58-.2,1.78-.42,1.78-1.44v-6.03h-8.1v6.03c0,1.02.24,1.24,1.8,1.44Z"/>
        <path class="cls-2" d="M331.45,183.59c1.11-.23,2.03-1.07,2.03-2.13,0-.92-.75-1.57-1.82-1.63,0-1.2.67-2.25,1.81-2.25s1.93,1.06,1.93,2.53c0,2.25-1.85,3.88-3.76,4.18l-.19-.71Z"/>
        <path class="cls-2" d="M367.65,180.1v.81h-6.92v-.81c1.68-.2,1.89-.44,1.89-1.5v-12.55c0-1.06-.21-1.3-1.89-1.5v-.81h6.92v.81c-1.68.2-1.89.44-1.89,1.5v12.55c0,1.06.21,1.3,1.89,1.5Z"/>
        <path class="cls-2" d="M392.06,177.89l-.23-11.29c-.02-1.53-.24-1.85-1.94-2.04v-.81h5.17v.81c-1.63.23-1.83.55-1.84,2.02l-.11,14.34h-2.92l-9.67-14.71.23,11.85c.02,1.53.25,1.85,1.94,2.04v.81h-5.17v-.81c1.63-.23,1.84-.55,1.85-2.02l.07-11.71c0-1.26-.26-1.58-1.8-1.82v-.81h5.1l9.31,14.15Z"/>
        <path class="cls-2" d="M414.41,163.42c2.65,0,4.62.55,5.62,1.27l.14,3.99h-.76c-.65-2.8-2.23-4.11-4.76-4.11-3.66,0-5.79,3-5.79,7.45s2.27,8.05,5.81,8.05c2.44,0,4.11-1.18,4.8-4.24h.76l-.14,3.99c-1,.73-3.27,1.4-5.67,1.4-4.99,0-9.06-3.39-9.06-8.94s3.95-8.87,9.03-8.87Z"/>
        <path class="cls-2" d="M431.46,179.34c0-.97.8-1.76,1.77-1.76s1.77.78,1.77,1.76-.8,1.78-1.77,1.78-1.77-.81-1.77-1.78Z"/>
      </g>
      <g>
        <path class="cls-1" d="M88.86,198.1h-4.65v3.62h3.32v.96h-3.32v4.14h4.96v.96h-6.08v-10.64h5.77v.96Z"/>
        <path class="cls-1" d="M96.76,207.78h-1.12v-10.64h1.78l4.24,8.38h.03v-8.38h1.12v10.64h-1.12l-4.9-9.67h-.03v9.67Z"/>
        <path class="cls-1" d="M115.47,200.27c-.3-1.24-.86-2.43-2.42-2.43-1.48,0-2.73,1.39-2.73,4.62s1.26,4.62,2.73,4.62c1.97,0,2.49-1.83,2.38-3.45h-2.16v-.96h3.28v5.1h-.96v-1.04c-.57.79-1.49,1.26-2.54,1.26-2.22,0-3.86-2.04-3.86-5.54s1.64-5.54,3.86-5.54c1.96,0,3.14,1.34,3.5,3.09l-1.08.26Z"/>
        <path class="cls-1" d="M124.2,207.78h-1.12v-10.64h1.12v10.64Z"/>
        <path class="cls-1" d="M131.94,207.78h-1.12v-10.64h1.78l4.24,8.38h.03v-8.38h1.12v10.64h-1.12l-4.9-9.67h-.03v9.67Z"/>
        <path class="cls-1" d="M150.37,198.1h-4.65v3.62h3.32v.96h-3.32v4.14h4.96v.96h-6.08v-10.64h5.77v.96Z"/>
        <path class="cls-1" d="M162.93,198.1h-4.65v3.62h3.32v.96h-3.32v4.14h4.96v.96h-6.08v-10.64h5.77v.96Z"/>
        <path class="cls-1" d="M172.23,197.14c3.31,0,3.87,1.75,3.87,2.98s-.81,2.3-2.01,2.69l2.04,4.96h-1.24l-1.93-4.79h-2.12v4.79h-1.12v-10.64h2.52ZM170.83,202.04h1.5c2.2,0,2.64-.97,2.64-1.96,0-1.46-.92-1.98-2.43-1.98h-1.71v3.94Z"/>
        <path class="cls-1" d="M183.55,207.78h-1.12v-10.64h1.12v10.64Z"/>
        <path class="cls-1" d="M191.3,207.78h-1.12v-10.64h1.78l4.24,8.38h.03v-8.38h1.12v10.64h-1.12l-4.9-9.67h-.03v9.67Z"/>
        <path class="cls-1" d="M210,200.27c-.3-1.24-.86-2.43-2.42-2.43-1.48,0-2.73,1.39-2.73,4.62s1.26,4.62,2.73,4.62c1.97,0,2.49-1.83,2.38-3.45h-2.16v-.96h3.28v5.1h-.96v-1.04c-.57.79-1.49,1.26-2.54,1.26-2.22,0-3.86-2.04-3.86-5.54s1.64-5.54,3.86-5.54c1.96,0,3.14,1.34,3.5,3.09l-1.08.26Z"/>
        <path class="cls-1" d="M233.73,202.78c-.18,1.09-.46,2.22-1.13,3.24.46.37.94.81,1.56.81v.96c-.98,0-1.67-.48-2.27-.93-.79.68-1.67,1.15-2.75,1.15-1.64,0-2.98-1.31-2.98-2.99,0-1.49.93-2.53,2.13-3.27-.37-.78-.74-1.46-.74-2.49,0-1.31.79-2.32,2.05-2.32s2.01.9,2.01,2.19-.92,2.23-1.94,2.91c.59,1.12,1.33,2.26,2.22,3.24.46-.63.72-1.79.89-2.67l.96.18ZM227.18,204.9c0,1.16.82,2.19,2.02,2.19.83,0,1.42-.38,1.98-.97-.93-1.08-1.76-2.27-2.43-3.53-.88.56-1.57,1.19-1.57,2.31ZM230.59,198.93c0-.64-.38-1.13-1-1.13-.71,0-1.01.75-1.01,1.41,0,.72.23,1.35.6,1.98.79-.51,1.41-1.2,1.41-2.26Z"/>
        <path class="cls-1" d="M254.4,200.01c-.36-1.19-.85-2.17-2.22-2.17-.97,0-1.87.78-1.87,1.82,0,2.65,5.18,1.61,5.18,5.33,0,1.86-1.38,3.01-3.17,3.01-1.9,0-3.25-1.16-3.62-3.01l1.08-.26c.26,1.26,1.22,2.35,2.56,2.35,1.09,0,2.04-.83,2.04-1.97,0-2.95-5.18-1.72-5.18-5.29,0-1.75,1.37-2.9,3.06-2.9s2.76,1.24,3.16,2.78l-1.01.31Z"/>
        <path class="cls-1" d="M268.61,204.44c0,2.86-1.87,3.56-3.38,3.56s-3.38-.7-3.38-3.56v-7.3h1.12v6.52c0,1.65.12,3.27,2.26,3.27s2.26-1.61,2.26-3.27v-6.52h1.12v7.3Z"/>
        <path class="cls-1" d="M277.69,197.14c3.31,0,3.87,1.75,3.87,2.98s-.81,2.3-2.01,2.69l2.04,4.96h-1.24l-1.93-4.79h-2.12v4.79h-1.12v-10.64h2.52ZM276.29,202.04h1.5c2.2,0,2.64-.97,2.64-1.96,0-1.46-.92-1.98-2.43-1.98h-1.71v3.94Z"/>
        <path class="cls-1" d="M291.11,207.78h-1.03l-3.04-10.64h1.15l2.39,8.66h.03l2.54-8.66h1.09l-3.14,10.64Z"/>
        <path class="cls-1" d="M305.79,198.1h-4.65v3.62h3.32v.96h-3.32v4.14h4.96v.96h-6.08v-10.64h5.77v.96Z"/>
        <path class="cls-1" d="M316.02,203.32v4.46h-1.12v-4.46l-3.17-6.18h1.18l2.57,5.1h.03l2.42-5.1h1.13l-3.04,6.18Z"/>
        <path class="cls-1" d="M325.95,207.78h-1.12v-10.64h1.12v10.64Z"/>
        <path class="cls-1" d="M333.69,207.78h-1.12v-10.64h1.78l4.24,8.38h.03v-8.38h1.12v10.64h-1.12l-4.9-9.67h-.03v9.67Z"/>
        <path class="cls-1" d="M352.4,200.27c-.3-1.24-.86-2.43-2.42-2.43-1.48,0-2.73,1.39-2.73,4.62s1.26,4.62,2.73,4.62c1.97,0,2.49-1.83,2.38-3.45h-2.16v-.96h3.28v5.1h-.96v-1.04c-.57.79-1.49,1.26-2.54,1.26-2.22,0-3.86-2.04-3.86-5.54s1.64-5.54,3.86-5.54c1.96,0,3.14,1.34,3.5,3.09l-1.08.26Z"/>
      </g>
    </g>
  </g>
</svg>